<?xml version="1.0"?>
<svg width="687" height="666" xmlns="http://www.w3.org/2000/svg">
 <g>
  <title>background</title>
  <rect x="-1" y="-1" width="689" height="668" id="canvas_background" fill="none"/>
 </g>

 <g>
  <title>Layer 1</title>
  <line stroke-linecap="undefined" stroke-linejoin="undefined" id="svg_5" y2="632.950001" x2="326" y1="26.950001" x1="325" fill-opacity="null" stroke-opacity="null" stroke-width="1.5" stroke="#000" fill="none"/>
  <line stroke-linecap="undefined" stroke-linejoin="undefined" id="svg_6" y2="333.950001" x2="620" y1="333.950001" x1="44" fill-opacity="null" stroke-opacity="null" stroke-width="1.5" stroke="#000" fill="none"/>
  <line stroke-linecap="undefined" stroke-linejoin="undefined" id="svg_7" y2="74.950001" x2="331" y1="74.950001" x1="322" fill-opacity="null" stroke-opacity="null" stroke-width="1.5" stroke="#000" fill="none"/>
  <line stroke-linecap="undefined" stroke-linejoin="undefined" id="svg_7" y2="126.950001" x2="331" y1="126.950001" x1="322" fill-opacity="null" stroke-opacity="null" stroke-width="1.5" stroke="#000" fill="none"/>
  <line stroke-linecap="undefined" stroke-linejoin="undefined" id="svg_7" y2="178.450001" x2="331" y1="178.950001" x1="322" fill-opacity="null" stroke-opacity="null" stroke-width="1.5" stroke="#000" fill="none"/>
  <line stroke-linecap="undefined" stroke-linejoin="undefined" id="svg_7" y2="230.050001" x2="331" y1="230.050001" x1="322" fill-opacity="null" stroke-opacity="null" stroke-width="1.5" stroke="#000" fill="none"/>
  <line stroke-linecap="undefined" stroke-linejoin="undefined" id="svg_7" y2="282.250001" x2="331" y1="281.950001" x1="322" fill-opacity="null" stroke-opacity="null" stroke-width="1.5" stroke="#000" fill="none"/>
  <line stroke-linecap="undefined" stroke-linejoin="undefined" id="svg_7" y2="386.450001" x2="331" y1="386.950001" x1="322" fill-opacity="null" stroke-opacity="null" stroke-width="1.5" stroke="#000" fill="none"/>
  <line stroke-linecap="undefined" stroke-linejoin="undefined" id="svg_7" y2="438.450001" x2="331" y1="438.950001" x1="322" fill-opacity="null" stroke-opacity="null" stroke-width="1.5" stroke="#000" fill="none"/>
  <line stroke-linecap="undefined" stroke-linejoin="undefined" id="svg_7" y2="490.450001" x2="331" y1="490.950001" x1="322" fill-opacity="null" stroke-opacity="null" stroke-width="1.5" stroke="#000" fill="none"/>
  <line stroke-linecap="undefined" stroke-linejoin="undefined" id="svg_7" y2="542.450001" x2="331" y1="542.950001" x1="322" fill-opacity="null" stroke-opacity="null" stroke-width="1.5" stroke="#000" fill="none"/>
  <line stroke-linecap="undefined" stroke-linejoin="undefined" id="svg_10" y2="336.950001" x2="113" y1="327.950001" x1="113" fill-opacity="null" stroke-opacity="null" stroke-width="1.5" stroke="#000" fill="none"/>
  <line stroke-linecap="undefined" stroke-linejoin="undefined" id="svg_10" y2="336.950001" x2="166" y1="327.950001" x1="166" fill-opacity="null" stroke-opacity="null" stroke-width="1.5" stroke="#000" fill="none"/>
  <line stroke-linecap="undefined" stroke-linejoin="undefined" id="svg_10" y2="336.950001" x2="219" y1="327.950001" x1="219" fill-opacity="null" stroke-opacity="null" stroke-width="1.5" stroke="#000" fill="none"/>
  <line stroke-linecap="undefined" stroke-linejoin="undefined" id="svg_10" y2="336.950001" x2="272" y1="327.950001" x1="272" fill-opacity="null" stroke-opacity="null" stroke-width="1.5" stroke="#000" fill="none"/>
  <line stroke-linecap="undefined" stroke-linejoin="undefined" id="svg_10" y2="336.950001" x2="378" y1="327.950001" x1="378" fill-opacity="null" stroke-opacity="null" stroke-width="1.5" stroke="#000" fill="none"/>
  <line stroke-linecap="undefined" stroke-linejoin="undefined" id="svg_10" y2="336.950001" x2="431" y1="327.950001" x1="431" fill-opacity="null" stroke-opacity="null" stroke-width="1.5" stroke="#000" fill="none"/>
  <line stroke-linecap="undefined" stroke-linejoin="undefined" id="svg_10" y2="336.950001" x2="484" y1="327.950001" x1="484" fill-opacity="null" stroke-opacity="null" stroke-width="1.5" stroke="#000" fill="none"/>
  <line stroke-linecap="undefined" stroke-linejoin="undefined" id="svg_10" y2="336.950001" x2="537" y1="327.950001" x1="537" fill-opacity="null" stroke-opacity="null" stroke-width="1.5" stroke="#000" fill="none"/>
  <ellipse fill="#000000" stroke="#000" stroke-width="1.5" stroke-opacity="null" cx="275.49996" cy="489.449978" id="svg_1" rx="3.5" ry="3.5"/>
  <ellipse fill="#000000" stroke="#000" stroke-width="1.5" stroke-opacity="null" cx="378.499958" cy="487.449978" id="svg_2" rx="3.5" ry="3.5"/>
  <ellipse fill="#000000" stroke="#000" stroke-width="1.5" stroke-opacity="null" cx="217.999961" cy="333.449978" id="svg_3" rx="3" ry="3.5"/>
  <ellipse fill="#000000" stroke="#000" stroke-width="1.5" stroke-opacity="null" cx="429.49996" cy="333.449978" id="svg_4" rx="3.5" ry="3.5"/>
  <ellipse fill="#000000" stroke="#000" stroke-width="1.5" stroke-opacity="null" cx="327.499958" cy="543.449978" id="svg_8" rx="3.5" ry="3.5"/>
  <ellipse fill="#000000" stroke="#000" stroke-width="1.5" stroke-opacity="null" cx="483.499958" cy="74.449978" id="svg_9" rx="3.5" ry="3.5"/>
  <ellipse fill="#000000" stroke="#000" stroke-width="1.5" stroke-opacity="null" cx="164.499958" cy="74.449978" id="svg_11" rx="3.5" ry="3.5"/>
  <path d="m492,34.950001c-1,0 -2,2 -2,4c0,2 -1,5 -1,6c0,2 0,6 -1,9c-1,3 -0.31073,4.080254 -1,7c-1.027496,4.352497 -1.839813,6.012905 -2,6.999996c-0.506531,3.121445 -2.679626,4.025826 -3,6c-0.506531,3.121445 -1.789856,6.078438 -3,9c-0.855713,2.065857 -1.486267,3.823746 -2,6c-0.68927,2.919746 1.296112,6.456726 -1,12c-0.541199,1.306564 -2,4 -3,6c-1,2 -1.486267,2.823746 -2,5c-1.838013,7.785995 0,12 0,13c0,2 1.37851,3.160507 0,9c-1.027496,4.352509 -2.458801,13.693436 -3,15c-0.765381,1.847763 0,4 0,5c0,3 -1,4 -1,5c0,2 0.40213,3.040848 0,5c-1.531281,7.460236 -4.486267,9.823746 -5,12c-0.919006,3.89299 -1.493469,5.878555 -2,9c-0.320374,1.974182 -1.346191,5.70546 -3,8c-2.614899,3.627991 -2,5 -3,9c-1,4 -2.458801,6.693436 -3,8c-0.765381,1.847763 -0.486267,2.823746 -1,5c-0.459503,1.946503 -0.493469,2.878555 -1,6c-0.320374,1.974182 -1.493469,3.878555 -2,7c-0.160187,0.987091 -1,3 -1,5c0,1 0,2 0,3c0,3 0,4 0,6c0,2 0,3 0,4c0,3 0,4 0,5c0,1 0.229767,3.026779 0,4.000015c-0.513733,2.176239 -1,5 -1,6c0,1 -0.692535,4.186005 -2,6c-0.826904,1.147278 -1,3 -1,4c0,1 -0.458801,3.693451 -1,5c-0.38269,0.923889 -0.496216,1.907776 -1,6c-0.122192,0.992493 -0.234619,2.152252 -1,4c-0.541199,1.306549 -2.824432,1.0979 -4,3c-1.051453,1.701294 -1,3 -1,4c0,4 -0.499023,5.953308 -1,14c-0.248535,3.992279 -2,6 -2,8c0,1 -0.486267,1.823761 -1,4c-0.229767,0.973236 -1,2 -1,3c0,3 0,4 0,6c0,2 -1,4 -1,5c0,2 0.307465,3.186005 -1,5c-0.826904,1.147278 -1.458801,2.693451 -2,4c-0.38269,0.923889 -0.173096,4.852722 -1,6c-1.307465,1.813995 -1,4 -1,5c0,1 0,4 0,5c0,1 0.459503,4.053497 0,6c-0.513733,2.176239 -3.458801,4.693451 -4,6c-1.148041,2.771637 -0.337494,5.309998 -2,8c-0.7435,1.203003 -1.851959,3.228363 -3,6c-0.541199,1.306549 -1.458801,1.693451 -2,3c-0.765381,1.847748 -0.486267,2.823761 -1,5c-0.459503,1.946503 -0.486267,2.823761 -1,5c-0.459503,1.946503 0,3 0,5c0,3 0,4 0,5c0,1 0,3 0,5c0,1 -1.458801,2.693451 -2,4c-0.38269,0.923889 -1,2 -3,4c-2,2 -2.234619,4.152252 -3,6c-0.541199,1.306549 -0.540497,3.053497 -1,5c-0.513733,2.176239 -2,3 -2,5c0,2 0.148041,3.228363 -1,6c-0.541199,1.306549 -2,3 -2,5c0,1 -1,2 -2,3c-1,1 -1.486267,2.823761 -2,5c-0.68927,2.919739 -0.420441,4.085815 -1,6c-1.04483,3.450836 -3.173096,3.852722 -4,5c-1.307465,1.813995 -1,3 -3,5c-1,1 -0.61731,4.076111 -1,5c-0.541199,1.306549 -1.917603,3.386871 -3,6c-0.765381,1.847748 0,3 0,4c0,1 0.38269,4.076111 0,5c-0.541199,1.306549 -0.422821,2.448059 -2,5c-1.175568,1.9021 -3.144287,1.934143 -4,4c-1.210144,2.92157 -0.234619,4.152252 -1,6c-0.541199,1.306549 -1,2 -2,3c-2,2 -3.173096,3.852722 -4,5c-1.307465,1.813965 -1.770233,3.026733 -2,4c-0.513733,2.17627 -2,6 -3,7c-1,1 -1,3 -2,4c-1,1 -1.693451,4.458801 -3,5c-0.923889,0.38269 -1.852722,1.173096 -3,2c-3.627991,2.614929 -5.026764,2.770264 -6,3c-2.176239,0.513733 -4,1 -5,1c-2,0 -2.823761,0.486267 -5,1c-1.946503,0.459534 -3,0 -4,1c-1,1 -3,2 -5,2c-1,0 -2.024323,1.492676 -7,1c-5.074219,-0.502441 -9.309998,-3.337463 -12,-5c-2.406006,-1.487 -3.558197,-3.519287 -7,-6c-1.813995,-1.307434 -3.380737,-1.522217 -6,-4c-3.632263,-3.436096 -5.692535,-7.186035 -7,-9c-0.826904,-1.147278 -1.810883,-2.018066 -2,-3c-1.018372,-5.288025 -3.458801,-5.69342 -4,-7c-0.765381,-1.847778 -0.227997,-5.2771 -2,-9c-2.148865,-4.514679 -4.486267,-5.823761 -5,-8c-0.459503,-1.946503 -1.458801,-2.693451 -2,-4c-1.148041,-2.771637 -1,-6 -2,-9c-1,-3 -0.770233,-5.026764 -1,-6c-0.513733,-2.176239 -1.95517,-3.549164 -3,-7c-0.289795,-0.957092 -0.541351,-2.702667 -2,-6c-1.66803,-3.77063 -1.755646,-6.014984 -2,-8c-0.503784,-4.092224 -3.692535,-7.186005 -5,-9c-0.826904,-1.147278 -1.458801,-3.693451 -2,-5c-0.38269,-0.923889 -2.458801,-3.693451 -3,-5c-0.38269,-0.923889 -0.839813,-6.012909 -1,-7c-0.506546,-3.121429 -1,-4 -1,-5c0,-2 -3.458801,-4.693451 -4,-6c-0.765366,-1.847748 -1,-5 -1,-8c0,-1 0,-2 0,-5c0,-1 -0.497559,-2.925781 -1,-8c-0.295609,-2.985413 -3,-8 -3,-10c0,-1 -0.679642,-4.025818 -1,-6c-0.506546,-3.121429 -0.901459,-5.004852 -1,-6c-0.502441,-5.074219 -0.035522,-6.504242 -3,-11c-1.557022,-2.361298 -2.839813,-5.012909 -3,-6c-0.506546,-3.121429 -1,-5 -3,-6c-2,-1 -2.610641,-4.159271 -4,-7c-1.584106,-3.238922 -3.2565,-5.796997 -4,-7c-1.662506,-2.690002 -2.458801,-3.693451 -3,-5c-0.765366,-1.847748 -1.917603,-4.386871 -3,-7c-0.38269,-0.923889 -2.569504,-4.132996 -4,-8c-0.775803,-2.097168 -1.668991,-5.056366 -2,-6c-2.119476,-6.042175 -4.679642,-6.025818 -5,-8c-0.506546,-3.121429 -1,-6 -2,-9c-1,-3 -1.877823,-4.007507 -2,-5c-0.503769,-4.092224 -1.917603,-5.386871 -3,-8c-0.765366,-1.847748 -1.274307,-4.884949 -2,-7c-1.654816,-4.823029 -2,-7 -2,-10c0,-1 -0.493454,-1.878571 -1,-5c-0.320358,-1.974182 -2,-7.000015 -2,-8.000015c0,-1 0.229752,-4.026749 0,-5c-1.027481,-4.352509 -2,-5 -2,-6c0,-3 -0.486252,-3.823746 -1,-6c-0.459503,-1.946503 2.095078,-4.947769 -1,-9c-1.357285,-1.777023 -2,-2 -2,-5c0,-1 -0.493454,-1.878555 -1,-5c-0.320358,-1.974182 -2,-5 -2,-6c0,-2 -0.540497,-5.053497 -1,-7c-1.027481,-4.352509 -3,-10 -3,-11c0,-1 -1,-5 -1,-6c0,-3 -0.486252,-5.823746 -1,-8c-0.229752,-0.973251 0,-3 0,-5c0,-2 -3,-7 -3,-8c0,-3 0,-5 0,-6c0,-6 -1,-12 -1,-15c0,-1 -0.770248,-6.026749 -1,-7c-0.513748,-2.176254 -1,-6 -1,-9c0,-1 -2.972519,-3.647499 -4,-8c-0.229752,-0.973251 0.37822,-3.036087 0,-5c-1.018372,-5.287994 -0.898331,-7.291847 -3,-13c-2.014664,-5.471848 -3,-8 -3,-10c0,-1 -1,-6 -1,-7c0,-3 0,-5 0,-8c0,-2 0,-5 0,-7c0,-2 0,-5 0,-7.999996c0,-1 0,-3 0,-5c0,-2 0,-3 0,-5c0,-1 0,-3 0,-7c0,-1 0,-2 0,-4c0,-2 0,-3 0,-5l0,-3l-1,-3" id="svg_20" fill-opacity="null" stroke-opacity="null" stroke-width="1.5" stroke="#000" fill="none"/>
  <text xml:space="preserve" text-anchor="left" font-family="Helvetica, Arial, sans-serif" font-size="14" id="svg_22" y="349.950001" x="333" fill-opacity="null" stroke-opacity="null" stroke-width="0" stroke="#000" fill="#000000">0</text>
  <text style="cursor: move;" xml:space="preserve" text-anchor="left" font-family="Helvetica, Arial, sans-serif" font-size="14" id="svg_23" y="349.950001" x="380" fill-opacity="null" stroke-opacity="null" stroke-width="0" stroke="#000" fill="#000000">1</text>
  <text style="cursor: move;" xml:space="preserve" text-anchor="left" font-family="Helvetica, Arial, sans-serif" font-size="14" id="svg_24" y="352.950001" x="432" fill-opacity="null" stroke-opacity="null" stroke-width="0" stroke="#000" fill="#000000">2</text>
  <text style="cursor: move;" xml:space="preserve" text-anchor="left" font-family="Helvetica, Arial, sans-serif" font-size="14" id="svg_25" y="351.950001" x="484" fill-opacity="null" stroke-opacity="null" stroke-width="0" stroke="#000" fill="#000000">3</text>
  <text style="cursor: move;" xml:space="preserve" text-anchor="left" font-family="Helvetica, Arial, sans-serif" font-size="14" id="svg_26" y="349.950001" x="538" fill-opacity="null" stroke-opacity="null" stroke-width="0" stroke="#000" fill="#000000">4</text>
  <text style="cursor: move;" xml:space="preserve" text-anchor="left" font-family="Helvetica, Arial, sans-serif" font-size="14" id="svg_27" y="349.950001" x="272" fill-opacity="null" stroke-opacity="null" stroke-width="0" stroke="#000" fill="#000000">-1</text>
  <text style="cursor: move;" xml:space="preserve" text-anchor="left" font-family="Helvetica, Arial, sans-serif" font-size="14" id="svg_28" y="349.950001" x="216" fill-opacity="null" stroke-opacity="null" stroke-width="0" stroke="#000" fill="#000000">-2</text>
  <text style="cursor: move;" xml:space="preserve" text-anchor="left" font-family="Helvetica, Arial, sans-serif" font-size="14" id="svg_29" y="351.950001" x="162" fill-opacity="null" stroke-opacity="null" stroke-width="0" stroke="#000" fill="#000000">-3</text>
  <text style="cursor: move;" xml:space="preserve" text-anchor="left" font-family="Helvetica, Arial, sans-serif" font-size="14" id="svg_30" y="350.950001" x="112" fill-opacity="null" stroke-opacity="null" stroke-width="0" stroke="#000" fill="#000000">-4</text>
  <text style="cursor: move;" xml:space="preserve" text-anchor="left" font-family="Helvetica, Arial, sans-serif" font-size="14" id="svg_31" y="289.950001" x="334" fill-opacity="null" stroke-opacity="null" stroke-width="0" stroke="#000" fill="#000000">1</text>
  <text style="cursor: move;" xml:space="preserve" text-anchor="left" font-family="Helvetica, Arial, sans-serif" font-size="14" id="svg_32" y="234.950001" x="333" fill-opacity="null" stroke-opacity="null" stroke-width="0" stroke="#000" fill="#000000">2</text>
  <text style="cursor: move;" xml:space="preserve" text-anchor="left" font-family="Helvetica, Arial, sans-serif" font-size="14" id="svg_33" y="187.950001" x="333" fill-opacity="null" stroke-opacity="null" stroke-width="0" stroke="#000" fill="#000000">3</text>
  <text style="cursor: move;" xml:space="preserve" text-anchor="left" font-family="Helvetica, Arial, sans-serif" font-size="14" id="svg_34" y="134.950001" x="331" fill-opacity="null" stroke-opacity="null" stroke-width="0" stroke="#000" fill="#000000">4</text>
  <text style="cursor: move;" xml:space="preserve" text-anchor="left" font-family="Helvetica, Arial, sans-serif" font-size="14" id="svg_35" y="78.950001" x="333" fill-opacity="null" stroke-opacity="null" stroke-width="0" stroke="#000" fill="#000000">5</text>
  <text style="cursor: move;" xml:space="preserve" text-anchor="left" font-family="Helvetica, Arial, sans-serif" font-size="14" id="svg_36" y="391.950001" x="333" fill-opacity="null" stroke-opacity="null" stroke-width="0" stroke="#000" fill="#000000">-1</text>
  <text style="cursor: move;" xml:space="preserve" text-anchor="left" font-family="Helvetica, Arial, sans-serif" font-size="14" id="svg_37" y="448.950001" x="334" fill-opacity="null" stroke-opacity="null" stroke-width="0" stroke="#000" fill="#000000">-2</text>
  <text style="cursor: move;" xml:space="preserve" text-anchor="left" font-family="Helvetica, Arial, sans-serif" font-size="14" id="svg_38" y="495.950001" x="333" fill-opacity="null" stroke-opacity="null" stroke-width="0" stroke="#000" fill="#000000">-3</text>
  <text style="cursor: move;" xml:space="preserve" text-anchor="left" font-family="Helvetica, Arial, sans-serif" font-size="14" id="svg_39" y="558.950001" x="333" fill-opacity="null" stroke-opacity="null" stroke-width="0" stroke="#000" fill="#000000">-4</text>
  <line stroke-linecap="null" stroke-linejoin="null" id="svg_40" y2="29.950001" x2="532" y1="436.950001" x1="111" fill-opacity="null" stroke-opacity="null" stroke-width="1.5" stroke="#000" fill="none"/>
  <text xml:space="preserve" text-anchor="left" font-family="Helvetica, Arial, sans-serif" font-size="21" id="svg_42" y="355.950001" x="617" fill-opacity="null" stroke-opacity="null" stroke-width="0" stroke="#000" fill="#000000">X</text>
  <text style="cursor: move;" xml:space="preserve" text-anchor="left" font-family="Helvetica, Arial, sans-serif" font-size="21" id="svg_43" y="38.950001" x="298" fill-opacity="null" stroke-opacity="null" stroke-width="0" stroke="#000" fill="#000000">Y</text>
  <text xml:space="preserve" text-anchor="left" font-family="Helvetica, Arial, sans-serif" font-size="14" id="svg_44" y="493.950001" x="390" fill-opacity="null" stroke-opacity="null" stroke-width="0" stroke="#000" fill="#000000">(2,-3)</text>
  <text style="cursor: move;" xml:space="preserve" text-anchor="left" font-family="Helvetica, Arial, sans-serif" font-size="14" id="svg_45" y="499.950001" x="223" fill-opacity="null" stroke-opacity="null" stroke-width="0" stroke="#000" fill="#000000">(-2,-3)</text>
  <text xml:space="preserve" text-anchor="left" font-family="Helvetica, Arial, sans-serif" font-size="14" id="svg_46" y="83.950001" x="504" fill-opacity="null" stroke-opacity="null" stroke-width="0" stroke="#000" fill="#000000">(3,5)</text>
  <text style="cursor: move;" xml:space="preserve" text-anchor="left" font-family="Helvetica, Arial, sans-serif" font-size="14" id="svg_47" y="80.950001" x="173" fill-opacity="null" stroke-opacity="null" stroke-width="0" stroke="#000" fill="#000000">(-3,5)</text>
 </g>
</svg>